<?xml version="1.0" encoding="UTF-8" standalone="no"?>
<!-- Created with Inkscape (http://www.inkscape.org/) -->

<svg
   width="25.0mm"
   height="25.0mm"
   viewBox="0 0 25.0 25.0"
   version="1.1"
   id="svg5"
   sodipodi:docname="kibo.svg"
   inkscape:version="1.1.2 (0a00cf5339, 2022-02-04)"
   xmlns:inkscape="http://www.inkscape.org/namespaces/inkscape"
   xmlns:sodipodi="http://sodipodi.sourceforge.net/DTD/sodipodi-0.dtd"
   xmlns="http://www.w3.org/2000/svg"
   xmlns:svg="http://www.w3.org/2000/svg">
  <sodipodi:namedview
     id="namedview7"
     pagecolor="#ffffff"
     bordercolor="#666666"
     borderopacity="1.0"
     inkscape:pageshadow="2"
     inkscape:pageopacity="0.0"
     inkscape:pagecheckerboard="0"
     inkscape:document-units="mm"
     showgrid="false"
     inkscape:zoom="6.704399"
     inkscape:cx="86.137475"
     inkscape:cy="44.523006"
     inkscape:window-width="1920"
     inkscape:window-height="1007"
     inkscape:window-x="0"
     inkscape:window-y="0"
     inkscape:window-maximized="1"
     inkscape:current-layer="svg5" />
  <defs
     id="defs2" />
  <g
     inkscape:label="[fixed] BG"
     inkscape:groupmode="layer"
     sodipodi:insensitive="true"
     id="g514">
    <rect
       x="0"
       y="0"
       width="25.0"
       height="25.0"
       style="fill:#FFFFFF;fill-opacity:1;stroke:none"
       id="rect512" />
  </g>
  <g
     inkscape:label="F.SilkS"
     inkscape:groupmode="layer"
     id="g516" />
  <path
     style="opacity:0.57;fill:#333333;stroke:#333333;stroke-width:0.0455167"
     id="path176"
     d="m 3.0742225,8.2611388 c -0.090227,0.9162818 -0.178473,1.8360322 -0.1912795,2.7574542 -0.010959,0.788409 0.016838,1.086318 0.05634,1.881183 0.1519634,1.680354 0.4058737,3.348961 0.5931843,5.025475 0.038685,0.340649 0.067722,0.682165 0.092625,1.024039 0,0 0.5917258,-0.307662 0.5917258,-0.307662 v 0 C 4.1855354,18.302325 4.1480593,17.963751 4.102697,17.62599 3.8848349,15.95872 3.6176941,14.296473 3.4826161,12.619681 3.4126251,11.071373 3.4103879,9.5082527 3.6909475,7.9779784 c 0,0 -0.6167234,0.2831604 -0.6167234,0.2831604 z" />
  <path
     style="opacity:0.57;fill:#333333;stroke:#333333;stroke-width:0.0455167"
     id="path178"
     d="m 4.1118054,13.483103 c 0.055201,-0.08085 0.1059073,-0.16496 0.1656053,-0.242548 0.2724238,-0.354059 0.5961509,-0.70655 0.895078,-1.031361 0.711592,-0.773207 1.4486881,-1.521827 2.1845179,-2.2717792 0.8884526,-0.8958706 0.4600021,-0.4683652 1.2842987,-1.2835707 0,0 -0.5749785,0.2380014 -0.5749785,0.2380014 v 0 C 7.2566486,9.7027366 7.6789415,9.27735 6.8001648,10.168716 c -0.739225,0.754798 -1.4801581,1.50793 -2.2004409,2.280964 -0.3374269,0.36214 -0.630695,0.67322 -0.9312597,1.055959 -0.063334,0.08065 -0.1181305,0.167643 -0.1771958,0.251464 0,0 0.620537,-0.274 0.620537,-0.274 z" />
  <path
     style="opacity:0.57;fill:#333333;stroke:#333333;stroke-width:0.0455167"
     id="path180"
     d="m 3.123235,13.861593 c 0.070376,0.0026 0.1416484,-0.0038 0.2111166,0.0077 0.3625792,0.06019 0.7513548,0.18347 1.0934823,0.302255 0.7196917,0.249873 1.3949639,0.572864 2.0737068,0.915647 0.9511838,0.50217 1.8370561,1.119205 2.6477368,1.824617 0,0 0.5606695,-0.349493 0.5606695,-0.349493 v 0 C 8.8832012,15.86287 7.9836423,15.24871 7.0256015,14.74269 6.3460871,14.39919 5.6704953,14.074836 4.9539946,13.814118 4.6735331,13.712064 4.1923115,13.548092 3.880212,13.478523 3.81172,13.463253 3.7406328,13.463933 3.6708428,13.456633 c 0,0 -0.5476078,0.404967 -0.5476078,0.404967 z" />
  <path
     style="opacity:0.57;fill:#333333;stroke:#333333;stroke-width:0.0455167"
     id="path190"
     d="m 11.178029,16.428559 c -0.01806,-0.127916 -0.04066,-0.25527 -0.05416,-0.383746 -0.0934,-0.889414 -0.0869,-1.788181 -0.07804,-2.681164 0.0022,-0.112507 0.0044,-0.225016 0.0066,-0.337522 0,0 -0.547423,0.279504 -0.547423,0.279504 v 0 c 0.0041,0.109395 0.0081,0.21879 0.01218,0.328185 0.03576,1.034643 0.06103,2.06967 0.07857,3.104695 0,0 0.58228,-0.309952 0.582282,-0.309952 z" />
  <path
     style="opacity:0.57;fill:#333333;stroke:#333333;stroke-width:0.0455167"
     id="path192"
     d="m 10.71892,11.497161 c 0.157576,-0.295896 0.356538,-0.566845 0.552008,-0.838234 0,0 -0.574914,0.249348 -0.574914,0.249348 v 0 c -0.203887,0.288023 -0.415082,0.573234 -0.586045,0.882529 0,0 0.608951,-0.293643 0.608951,-0.293643 z" />
  <path
     style="opacity:0.57;fill:#333333;stroke:#333333;stroke-width:0.0455167"
     id="path194"
     d="m 14.402427,15.935642 c -0.37431,-1.022215 -0.445916,-2.123608 -0.518832,-3.200294 -0.072,-1.218681 -0.05922,-2.439883 -0.0038,-3.6587675 0,0 -0.544155,0.2762233 -0.544155,0.2762233 v 0 c 0.01935,1.2073872 0.0349,2.4150632 0.0863,3.6216222 0.06976,1.100161 0.147621,2.207183 0.392088,3.28496 0,0 0.588464,-0.323744 0.588464,-0.323744 z" />
  <path
     style="opacity:0.57;fill:#333333;stroke:#333333;stroke-width:0.0455167"
     id="path200"
     d="m 14.190064,15.64526 c 0.570638,-0.590725 1.174172,-1.147978 1.782006,-1.699872 0.160903,-0.147726 0.328618,-0.287802 0.490851,-0.434028 0.121568,-0.109575 0.212814,-0.147481 0.208115,-0.328424 -0.0052,-0.20088 -0.134577,-0.269143 -0.26563,-0.404557 -0.696365,-0.513871 -1.496921,-0.861892 -2.287239,-1.203989 -0.205979,-0.08435 -0.413102,-0.166862 -0.625407,-0.23418 -0.0393,-0.01247 -0.09655,1.5e-5 -0.1187,-0.03476 -0.01479,-0.02322 0.04116,-0.03658 0.06133,-0.05533 0.04476,-0.04157 0.08897,-0.08374 0.133456,-0.125609 0.07317,-0.05712 0.143999,-0.117387 0.219511,-0.171381 0.195203,-0.139579 0.505015,-0.333996 0.704529,-0.459319 0.337222,-0.211825 0.677057,-0.419152 1.018708,-0.6237216 0.07888,-0.045679 0.315222,-0.1832552 0.236651,-0.1370405 -0.121871,0.071687 -0.244894,0.1414009 -0.366551,0.2134469 -0.04617,0.02734 0.09356,-0.05259 0.140078,-0.079327 C 15.747,9.737702 15.971199,9.6064407 16.196941,9.477872 c 0.16003,-0.091144 -0.319146,0.1838911 -0.47803,0.2770185 -0.02169,0.012717 0.04427,-0.023833 0.0664,-0.035757 0.207382,-0.1257717 0.437357,-0.2202211 0.622146,-0.3773153 0.03119,-0.026517 -0.02101,-0.0805 -0.04303,-0.1150141 -0.03023,-0.047422 -0.07008,-0.088518 -0.111196,-0.1268849 -0.06756,-0.06304 -0.141148,-0.119358 -0.213837,-0.1764168 C 15.797298,8.7334647 15.593214,8.5905728 15.340023,8.4077249 14.767154,7.9999405 14.205198,7.5763319 13.621702,7.183654 13.581962,7.158872 13.542222,7.134089 13.502477,7.109298 c 0,0 -0.550671,0.3580128 -0.550671,0.3580128 v 0 c 0.04237,0.022067 0.08475,0.044133 0.127127,0.066192 0.615048,0.3552472 1.197314,0.7645774 1.76887,1.1853592 0.258552,0.2036905 0.419563,0.3227355 0.657313,0.53627 0.06457,0.057996 0.12809,0.1174287 0.187144,0.1810337 0.03182,0.034281 0.06162,0.071176 0.08476,0.1118269 0.0078,0.013604 -0.0087,0.053294 0.0054,0.046645 0.18206,-0.085368 0.350518,-0.1971616 0.525778,-0.2957424 -0.361496,0.1877148 -1.288537,0.7380268 -0.279869,0.1584051 0.04899,-0.02815 -0.09798,0.056308 -0.146896,0.084597 -0.240288,0.1389606 -0.480892,0.2773764 -0.72071,0.4171475 -0.07438,0.04335 -0.147912,0.08814 -0.221869,0.1322082 -0.333108,0.203581 -0.665494,0.408383 -0.995928,0.616285 -0.179262,0.112787 -0.559054,0.351792 -0.734108,0.477696 -0.08128,0.05846 -0.156548,0.124835 -0.234822,0.187253 -0.04538,0.05212 -0.225569,0.190114 -0.143753,0.307691 0.02434,0.03496 0.0835,0.01703 0.124874,0.02717 0.222797,0.0546 0.440581,0.127724 0.656009,0.20602 0.674345,0.262197 1.358413,0.544246 1.95733,0.95674 0.104689,0.0721 0.201226,0.155375 0.30184,0.233062 0.09806,0.113019 0.22026,0.19261 0.212483,0.357444 -0.0067,0.140602 -0.107602,0.20074 -0.1999,0.287409 -0.03494,0.03281 -0.458169,0.421043 -0.458635,0.421471 -0.619472,0.57381 -1.236087,1.150703 -1.84897,1.731529 0,0 0.614732,-0.255777 0.614732,-0.255777 z" />
  <path
     style="opacity:0.57;fill:#333333;stroke:#333333;stroke-width:0.0455167"
     id="path202"
     d="m 21.067461,8.7057682 c -0.130199,0.026934 -0.264557,0.0513 -0.390135,0.095617 -0.415507,0.1466278 -0.806489,0.394868 -1.170764,0.6247251 -0.126481,0.07981 -0.247224,0.1703403 -0.356374,0.272584 -0.129205,0.1210335 -0.237122,0.2629565 -0.355684,0.3944357 -0.253554,0.378053 -0.416619,0.555162 -0.538111,1.00668 -0.103006,0.382813 -0.110135,0.835667 -0.03617,1.22359 0.08588,0.450383 0.230023,0.686604 0.423593,1.089223 0.215959,0.247184 0.413953,0.556288 0.763628,0.644005 0.643271,0.161368 1.181853,-0.325971 1.655189,-0.673865 0.463098,-0.340368 0.787479,-0.836469 1.127897,-1.28443 0.325359,-0.554573 0.529527,-0.830176 0.72738,-1.439145 0.149034,-0.458712 0.226309,-0.838866 0.05014,-1.3062354 C 22.805303,8.9211788 22.474873,8.6455474 22.166583,8.3283383 22.014888,8.2093976 21.863195,8.0904569 21.711501,7.9715155 c 0,0 -0.474189,0.2993722 -0.474189,0.2993722 v 0 c 0.154071,0.1143571 0.308142,0.2287157 0.462214,0.3430743 0.317522,0.3200916 0.617749,0.5553958 0.783602,0.9956959 0.168956,0.4485361 0.102173,0.8234411 -0.03685,1.2667671 -0.190254,0.606713 -0.386945,0.865899 -0.710688,1.417328 -0.675545,0.869497 -0.360182,0.5366 -1.159439,1.278122 -0.05244,0.04865 -0.09252,0.123652 -0.161979,0.140758 -0.168124,0.0414 -0.349521,0.06353 -0.518747,0.02689 -0.349507,-0.07568 -0.540576,-0.366017 -0.760041,-0.606389 -0.204076,-0.404778 -0.339426,-0.605041 -0.424469,-1.064313 -0.07257,-0.391937 -0.05716,-0.819357 0.05438,-1.202984 0.130722,-0.449572 0.293267,-0.618004 0.55461,-0.9925262 1.207012,-1.2555744 -0.381474,0.3515442 0.74731,-0.6626334 0.05103,-0.045852 -0.247337,0.1133176 -0.180109,0.099626 0.100963,-0.020559 0.187405,-0.086368 0.284486,-0.120882 0.128558,-0.045703 0.230496,-0.059197 0.359952,-0.081741 0,0 0.535908,-0.4019111 0.535908,-0.4019111 z" />
</svg>
