M48
; DRILL file {KiCad 6.0.2+dfsg-1} date vr 25 aug 2023 19:24:00 CEST
; FORMAT={-:-/ absolute / inch / decimal}
; #@! TF.CreationDate,2023-08-25T19:24:00+02:00
; #@! TF.GenerationSoftware,Kicad,Pcbnew,6.0.2+dfsg-1
; #@! TF.FileFunction,Plated,1,2,PTH
FMAT,2
INCH
; #@! TA.AperFunction,Plated,PTH,ViaDrill
T1C0.0118
; #@! TA.AperFunction,Plated,PTH,ComponentDrill
T2C0.0320
; #@! TA.AperFunction,Plated,PTH,ComponentDrill
T3C0.0354
; #@! TA.AperFunction,Plated,PTH,ComponentDrill
T4C0.0402
%
G90
G05
T1
X2.9285Y-3.7927
X3.1644Y-3.3999
X3.2176Y-4.2
X3.2776Y-2.6982
X3.4Y-2.8
X3.4Y-3.8
X3.7Y-4.2
X3.9211Y-2.2495
X3.9212Y-3.7267
X4.0233Y-4.006
X4.3Y-3.1
X4.3Y-3.1
X4.3Y-3.1
X4.3Y-3.1
X4.3465Y-2.6
X4.4Y-2.3
X4.4726Y-3.0285
X4.5211Y-3.8125
X4.6049Y-3.0288
X4.6715Y-3.4848
X4.6938Y-3.0963
X6.16Y-4.1029
X6.16Y-4.24
X6.7767Y-2.7497
X7.4799Y-2.8081
X7.515Y-2.7084
X7.5977Y-3.9444
T2
X7.35Y-4.048
X7.45Y-4.048
X7.55Y-4.048
X7.65Y-4.048
T4
X7.158Y-1.9081
X7.158Y-2.0081
X7.158Y-2.1081
X7.158Y-2.2081
X7.158Y-2.3081
X7.158Y-2.4081
X7.158Y-2.5081
X7.158Y-2.6081
X7.158Y-2.7081
X7.158Y-2.8081
X7.158Y-2.9081
X7.158Y-3.0081
X7.158Y-3.1081
X7.158Y-3.2081
X7.158Y-3.3081
X7.158Y-3.4081
X7.158Y-3.5081
X7.158Y-3.6081
X7.158Y-3.7081
X7.158Y-3.8081
X7.858Y-1.9081
X7.858Y-2.0081
X7.858Y-2.1081
X7.858Y-2.2081
X7.858Y-2.3081
X7.858Y-2.4081
X7.858Y-2.5081
X7.858Y-2.6081
X7.858Y-2.7081
X7.858Y-2.8081
X7.858Y-2.9081
X7.858Y-3.0081
X7.858Y-3.1081
X7.858Y-3.2081
X7.858Y-3.3081
X7.858Y-3.4081
X7.858Y-3.5081
X7.858Y-3.6081
X7.858Y-3.7081
X7.858Y-3.8081
T3
G00X7.5492Y-4.2008
M15
G01X7.5335Y-4.2008
M16
G05
G00X7.5925Y-4.3819
M15
G01X7.5768Y-4.3819
M16
G05
G00X7.75Y-4.3819
M15
G01X7.7343Y-4.3819
M16
G05
G00X7.8681Y-4.3819
M15
G01X7.8524Y-4.3819
M16
G05
T0
M30
