%TF.GenerationSoftware,KiCad,Pcbnew,6.0.2+dfsg-1*%
%TF.CreationDate,2023-08-25T19:24:43+02:00*%
%TF.ProjectId,max,6d61782e-6b69-4636-9164-5f7063625858,rev1.0*%
%TF.SameCoordinates,Original*%
%TF.FileFunction,Soldermask,Top*%
%TF.FilePolarity,Negative*%
%FSLAX46Y46*%
G04 Gerber Fmt 4.6, Leading zero omitted, Abs format (unit mm)*
G04 Created by KiCad (PCBNEW 6.0.2+dfsg-1) date 2023-08-25 19:24:43*
%MOMM*%
%LPD*%
G01*
G04 APERTURE LIST*
%ADD10C,1.900000*%
%ADD11C,3.000000*%
%ADD12C,4.100000*%
%ADD13C,0.500000*%
%ADD14C,2.200000*%
%ADD15O,1.500000X1.500000*%
%ADD16O,1.800000X1.800000*%
%ADD17R,3.500000X1.700000*%
%ADD18O,1.700000X1.700000*%
%ADD19R,1.700000X1.700000*%
%ADD20C,0.800000*%
%ADD21O,2.000000X1.600000*%
%ADD22C,1.397000*%
%ADD23R,1.397000X1.397000*%
G04 APERTURE END LIST*
D10*
%TO.C,K25*%
X158888240Y-94000000D03*
D11*
X160158240Y-91460000D03*
D10*
X169048240Y-94000000D03*
D12*
X163968240Y-94000000D03*
D11*
X166508240Y-88920000D03*
%TD*%
D13*
%TO.C,MB4*%
X78033884Y-72958035D03*
X78033884Y-76708035D03*
X78033884Y-77458035D03*
X78033884Y-75958035D03*
X78033884Y-73708035D03*
X78033884Y-74458035D03*
%TD*%
D12*
%TO.C,K24*%
X144800389Y-94000000D03*
D10*
X149880389Y-94000000D03*
D11*
X147340389Y-88920000D03*
X140990389Y-91460000D03*
D10*
X139720389Y-94000000D03*
%TD*%
D12*
%TO.C,K13*%
X125754008Y-69953317D03*
D10*
X130834008Y-69953317D03*
X120674008Y-69953317D03*
D11*
X121944008Y-67413317D03*
X128294008Y-64873317D03*
%TD*%
D10*
%TO.C,K2*%
X92642966Y-65604957D03*
D11*
X90102966Y-60524957D03*
D12*
X87562966Y-65604957D03*
D11*
X83752966Y-63064957D03*
D10*
X82482966Y-65604957D03*
%TD*%
D11*
%TO.C,K21*%
X90102966Y-98624957D03*
D10*
X92642966Y-103704957D03*
X82482966Y-103704957D03*
D12*
X87562966Y-103704957D03*
D11*
X83752966Y-101164957D03*
%TD*%
D10*
%TO.C,K10*%
X73592966Y-84654957D03*
D12*
X68512966Y-84654957D03*
D11*
X64702966Y-82114957D03*
D10*
X63432966Y-84654957D03*
D11*
X71052966Y-79574957D03*
%TD*%
D14*
%TO.C,H4*%
X116111269Y-107714113D03*
%TD*%
D15*
%TO.C,U2*%
X188278200Y-51625000D03*
X193128200Y-51625000D03*
D16*
X193428200Y-48595000D03*
X187978200Y-48595000D03*
D17*
X180913200Y-48465000D03*
D18*
X181813200Y-48465000D03*
X181813200Y-51005000D03*
D17*
X180913200Y-51005000D03*
D19*
X181813200Y-53545000D03*
D17*
X180913200Y-53545000D03*
X180913200Y-56085000D03*
D18*
X181813200Y-56085000D03*
D17*
X180913200Y-58625000D03*
D18*
X181813200Y-58625000D03*
X181813200Y-61165000D03*
D17*
X180913200Y-61165000D03*
X180913200Y-63705000D03*
D18*
X181813200Y-63705000D03*
D17*
X180913200Y-66245000D03*
D19*
X181813200Y-66245000D03*
D17*
X180913200Y-68785000D03*
D18*
X181813200Y-68785000D03*
D17*
X180913200Y-71325000D03*
D18*
X181813200Y-71325000D03*
X181813200Y-73865000D03*
D17*
X180913200Y-73865000D03*
D18*
X181813200Y-76405000D03*
D17*
X180913200Y-76405000D03*
X180913200Y-78945000D03*
D19*
X181813200Y-78945000D03*
D18*
X181813200Y-81485000D03*
D17*
X180913200Y-81485000D03*
X180913200Y-84025000D03*
D18*
X181813200Y-84025000D03*
D17*
X180913200Y-86565000D03*
D18*
X181813200Y-86565000D03*
D17*
X180913200Y-89105000D03*
D18*
X181813200Y-89105000D03*
D19*
X181813200Y-91645000D03*
D17*
X180913200Y-91645000D03*
X180913200Y-94185000D03*
D18*
X181813200Y-94185000D03*
X181813200Y-96725000D03*
D17*
X180913200Y-96725000D03*
D18*
X199593200Y-96725000D03*
D17*
X200493200Y-96725000D03*
D18*
X199593200Y-94185000D03*
D17*
X200493200Y-94185000D03*
X200493200Y-91645000D03*
D19*
X199593200Y-91645000D03*
D18*
X199593200Y-89105000D03*
D17*
X200493200Y-89105000D03*
X200493200Y-86565000D03*
D18*
X199593200Y-86565000D03*
X199593200Y-84025000D03*
D17*
X200493200Y-84025000D03*
X200493200Y-81485000D03*
D18*
X199593200Y-81485000D03*
D17*
X200493200Y-78945000D03*
D19*
X199593200Y-78945000D03*
D18*
X199593200Y-76405000D03*
D17*
X200493200Y-76405000D03*
D18*
X199593200Y-73865000D03*
D17*
X200493200Y-73865000D03*
D18*
X199593200Y-71325000D03*
D17*
X200493200Y-71325000D03*
D18*
X199593200Y-68785000D03*
D17*
X200493200Y-68785000D03*
X200493200Y-66245000D03*
D19*
X199593200Y-66245000D03*
D18*
X199593200Y-63705000D03*
D17*
X200493200Y-63705000D03*
X200493200Y-61165000D03*
D18*
X199593200Y-61165000D03*
D17*
X200493200Y-58625000D03*
D18*
X199593200Y-58625000D03*
X199593200Y-56085000D03*
D17*
X200493200Y-56085000D03*
X200493200Y-53545000D03*
D19*
X199593200Y-53545000D03*
D18*
X199593200Y-51005000D03*
D17*
X200493200Y-51005000D03*
D18*
X199593200Y-48465000D03*
D17*
X200493200Y-48465000D03*
%TD*%
D10*
%TO.C,K04*%
X149880389Y-55788342D03*
X139720389Y-55788342D03*
D11*
X140990389Y-53248342D03*
X147340389Y-50708342D03*
D12*
X144800389Y-55788342D03*
%TD*%
D11*
%TO.C,K22*%
X102870000Y-91460000D03*
D10*
X101600000Y-94000000D03*
D12*
X106680000Y-94000000D03*
D11*
X109220000Y-88920000D03*
D10*
X111760000Y-94000000D03*
%TD*%
D14*
%TO.C,H2*%
X175626776Y-65306446D03*
%TD*%
D11*
%TO.C,K30*%
X144350733Y-107455102D03*
X138000733Y-109995102D03*
D10*
X146890733Y-112535102D03*
D12*
X141810733Y-112535102D03*
D10*
X136730733Y-112535102D03*
%TD*%
D14*
%TO.C,H4*%
X82980496Y-94174530D03*
%TD*%
D11*
%TO.C,K00*%
X64702966Y-63064957D03*
D12*
X68512966Y-65604957D03*
D11*
X71052966Y-60524957D03*
D10*
X73592966Y-65604957D03*
X63432966Y-65604957D03*
%TD*%
%TO.C,K03*%
X130834008Y-50788342D03*
D12*
X125754008Y-50788342D03*
D10*
X120674008Y-50788342D03*
D11*
X121944008Y-48248342D03*
X128294008Y-45708342D03*
%TD*%
%TO.C,K02*%
X102870000Y-53248342D03*
D10*
X111760000Y-55788342D03*
X101600000Y-55788342D03*
D12*
X106680000Y-55788342D03*
D11*
X109220000Y-50708342D03*
%TD*%
D10*
%TO.C,K12*%
X111760000Y-74953317D03*
X101600000Y-74953317D03*
D12*
X106680000Y-74953317D03*
D11*
X109220000Y-69873317D03*
X102870000Y-72413317D03*
%TD*%
D13*
%TO.C,MB3*%
X78076702Y-107078812D03*
X78076702Y-109328812D03*
X78076702Y-107828812D03*
X78076702Y-110078812D03*
X78076702Y-106328812D03*
X78076702Y-110828812D03*
%TD*%
D11*
%TO.C,K14*%
X140990389Y-72413317D03*
X147340389Y-69873317D03*
D10*
X139720389Y-74953317D03*
X149880389Y-74953317D03*
D12*
X144800389Y-74953317D03*
%TD*%
%TO.C,K20*%
X68512966Y-103704957D03*
D10*
X63432966Y-103704957D03*
D11*
X64702966Y-101164957D03*
D10*
X73592966Y-103704957D03*
D11*
X71052966Y-98624957D03*
%TD*%
D14*
%TO.C,H4*%
X82763682Y-74980397D03*
%TD*%
%TO.C,H1*%
X116111269Y-62856172D03*
%TD*%
D20*
%TO.C,J1*%
X201250000Y-109000000D03*
X194250000Y-109000000D03*
D21*
X191550000Y-106700000D03*
X192650000Y-111300000D03*
X196650000Y-111300000D03*
X199650000Y-111300000D03*
%TD*%
D22*
%TO.C,J2*%
X186689999Y-102819602D03*
X189229999Y-102819602D03*
X191769999Y-102819602D03*
D23*
X194309999Y-102819602D03*
%TD*%
D10*
%TO.C,K11*%
X92642966Y-84654957D03*
D11*
X90102966Y-79574957D03*
D12*
X87562966Y-84654957D03*
D10*
X82482966Y-84654957D03*
D11*
X83752966Y-82114957D03*
%TD*%
%TO.C,K15*%
X166508240Y-69873317D03*
D10*
X158888240Y-74953317D03*
D11*
X160158240Y-72413317D03*
D10*
X169048240Y-74953317D03*
D12*
X163968240Y-74953317D03*
%TD*%
D14*
%TO.C,H3*%
X176800000Y-107600000D03*
%TD*%
D12*
%TO.C,K32*%
X184000000Y-121000000D03*
D10*
X188604044Y-123146901D03*
X179395956Y-118853099D03*
D11*
X188448923Y-117469407D03*
X181620418Y-117087803D03*
%TD*%
D10*
%TO.C,K23*%
X130834008Y-89000000D03*
D11*
X121944008Y-86460000D03*
D10*
X120674008Y-89000000D03*
D11*
X128294008Y-83920000D03*
D12*
X125754008Y-89000000D03*
%TD*%
D13*
%TO.C,MB4*%
X78076225Y-95682377D03*
X78076225Y-92682377D03*
X78076225Y-93432377D03*
X78076225Y-94932377D03*
X78076225Y-96432377D03*
X78076225Y-91932377D03*
%TD*%
D10*
%TO.C,K05*%
X158888240Y-55788342D03*
X169048240Y-55788342D03*
D11*
X160158240Y-53248342D03*
D12*
X163968240Y-55788342D03*
D11*
X166508240Y-50708342D03*
%TD*%
D13*
%TO.C,MB4*%
X78024854Y-63210000D03*
X78024854Y-58710000D03*
X78024854Y-59460000D03*
X78024854Y-62460000D03*
X78024854Y-60210000D03*
X78024854Y-61710000D03*
%TD*%
D11*
%TO.C,K31*%
X166344421Y-109745928D03*
X159649826Y-111144674D03*
D10*
X157958054Y-113425552D03*
D12*
X162960877Y-114307685D03*
D10*
X167963700Y-115189818D03*
%TD*%
M02*
