M48
; DRILL file {KiCad 6.0.2+dfsg-1} date vr 25 aug 2023 19:24:00 CEST
; FORMAT={-:-/ absolute / inch / decimal}
; #@! TF.CreationDate,2023-08-25T19:24:00+02:00
; #@! TF.GenerationSoftware,Kicad,Pcbnew,6.0.2+dfsg-1
; #@! TF.FileFunction,NonPlated,1,2,NPTH
FMAT,2
INCH
; #@! TA.AperFunction,NonPlated,NPTH,ComponentDrill
T1C0.0197
; #@! TA.AperFunction,NonPlated,NPTH,ComponentDrill
T2C0.0315
; #@! TA.AperFunction,NonPlated,NPTH,ComponentDrill
T3C0.0591
; #@! TA.AperFunction,NonPlated,NPTH,ComponentDrill
T4C0.0709
; #@! TA.AperFunction,NonPlated,NPTH,ComponentDrill
T5C0.0748
; #@! TA.AperFunction,NonPlated,NPTH,ComponentDrill
T6C0.0866
; #@! TA.AperFunction,NonPlated,NPTH,ComponentDrill
T7C0.1181
; #@! TA.AperFunction,NonPlated,NPTH,ComponentDrill
T8C0.1614
%
G90
G05
T1
X3.0718Y-2.3114
X3.0718Y-2.3409
X3.0718Y-2.3705
X3.0718Y-2.4295
X3.0718Y-2.4591
X3.0718Y-2.4886
X3.0722Y-2.8724
X3.0722Y-2.9019
X3.0722Y-2.9314
X3.0722Y-2.9905
X3.0722Y-3.02
X3.0722Y-3.0495
X3.0739Y-3.6194
X3.0739Y-3.6489
X3.0739Y-3.6784
X3.0739Y-3.7375
X3.0739Y-3.767
X3.0739Y-3.7966
X3.0739Y-4.1862
X3.0739Y-4.2157
X3.0739Y-4.2452
X3.0739Y-4.3043
X3.0739Y-4.3338
X3.0739Y-4.3633
T2
X7.6476Y-4.2913
X7.9232Y-4.2913
T3
X7.4125Y-2.0325
X7.6035Y-2.0325
T4
X7.4007Y-1.9132
X7.6153Y-1.9132
T5
X2.4974Y-2.5829
X2.4974Y-3.3329
X2.4974Y-4.0829
X2.8974Y-2.5829
X2.8974Y-3.3329
X2.8974Y-4.0829
X3.2474Y-2.5829
X3.2474Y-3.3329
X3.2474Y-4.0829
X3.6474Y-2.5829
X3.6474Y-3.3329
X3.6474Y-4.0829
X4.0Y-2.1964
X4.0Y-2.9509
X4.0Y-3.7008
X4.4Y-2.1964
X4.4Y-2.9509
X4.4Y-3.7008
X4.7509Y-1.9995
X4.7509Y-2.7541
X4.7509Y-3.5039
X5.1509Y-1.9995
X5.1509Y-2.7541
X5.1509Y-3.5039
X5.3831Y-4.4305
X5.5008Y-2.1964
X5.5008Y-2.9509
X5.5008Y-3.7008
X5.7831Y-4.4305
X5.9008Y-2.1964
X5.9008Y-2.9509
X5.9008Y-3.7008
X6.2188Y-4.4656
X6.2554Y-2.1964
X6.2554Y-2.9509
X6.2554Y-3.7008
X6.6127Y-4.535
X6.6554Y-2.1964
X6.6554Y-2.9509
X6.6554Y-3.7008
X7.0628Y-4.6793
X7.4254Y-4.8483
T6
X3.2584Y-2.952
X3.2669Y-3.7077
X4.5713Y-2.4747
X4.5713Y-4.2407
X6.9144Y-2.5711
X6.9606Y-4.2362
T7
X2.5474Y-2.4829
X2.5474Y-3.2329
X2.5474Y-3.9829
X2.7974Y-2.3829
X2.7974Y-3.1329
X2.7974Y-3.8829
X3.2974Y-2.4829
X3.2974Y-3.2329
X3.2974Y-3.9829
X3.5474Y-2.3829
X3.5474Y-3.1329
X3.5474Y-3.8829
X4.05Y-2.0964
X4.05Y-2.8509
X4.05Y-3.6008
X4.3Y-1.9964
X4.3Y-2.7509
X4.3Y-3.5008
X4.8009Y-1.8995
X4.8009Y-2.6541
X4.8009Y-3.4039
X5.0509Y-1.7995
X5.0509Y-2.5541
X5.0509Y-3.3039
X5.4331Y-4.3305
X5.5508Y-2.0964
X5.5508Y-2.8509
X5.5508Y-3.6008
X5.6831Y-4.2305
X5.8008Y-1.9964
X5.8008Y-2.7509
X5.8008Y-3.5008
X6.2854Y-4.3758
X6.3054Y-2.0964
X6.3054Y-2.8509
X6.3054Y-3.6008
X6.549Y-4.3207
X6.5554Y-1.9964
X6.5554Y-2.7509
X6.5554Y-3.5008
X7.1504Y-4.6098
X7.4192Y-4.6248
T8
X2.6974Y-2.5829
X2.6974Y-3.3329
X2.6974Y-4.0829
X3.4474Y-2.5829
X3.4474Y-3.3329
X3.4474Y-4.0829
X4.2Y-2.1964
X4.2Y-2.9509
X4.2Y-3.7008
X4.9509Y-1.9995
X4.9509Y-2.7541
X4.9509Y-3.5039
X5.5831Y-4.4305
X5.7008Y-2.1964
X5.7008Y-2.9509
X5.7008Y-3.7008
X6.4158Y-4.5003
X6.4554Y-2.1964
X6.4554Y-2.9509
X6.4554Y-3.7008
X7.2441Y-4.7638
T0
M30
