M48
; DRILL file {KiCad 6.0.2+dfsg-1} date vr 25 aug 2023 19:39:18 CEST
; FORMAT={-:-/ absolute / inch / decimal}
; #@! TF.CreationDate,2023-08-25T19:39:18+02:00
; #@! TF.GenerationSoftware,Kicad,Pcbnew,6.0.2+dfsg-1
; #@! TF.FileFunction,Plated,1,2,PTH
FMAT,2
INCH
; #@! TA.AperFunction,Plated,PTH,ViaDrill
T1C0.0118
; #@! TA.AperFunction,Plated,PTH,ComponentDrill
T2C0.0320
; #@! TA.AperFunction,Plated,PTH,ComponentDrill
T3C0.0354
; #@! TA.AperFunction,Plated,PTH,ComponentDrill
T4C0.0402
%
G90
G05
T1
X3.0384Y-3.9549
X3.1919Y-4.887
X3.2324Y-3.137
X3.273Y-3.1379
X3.4Y-1.9719
X3.542Y-3.4081
X3.7567Y-3.8699
X3.807Y-3.8592
X3.8232Y-4.0122
X3.8449Y-4.0449
X3.8791Y-3.9416
X3.9459Y-3.7588
X3.9518Y-3.7077
X3.9659Y-3.43
X3.966Y-2.0065
X3.9676Y-2.9552
X3.9779Y-4.3209
X3.9956Y-3.9689
X4.0565Y-4.0361
X4.3193Y-3.9408
X4.5651Y-3.4169
X4.7188Y-2.9496
X4.8419Y-4.223
X4.8423Y-3.9479
X4.8423Y-3.9479
X5.23Y-3.3931
X5.3493Y-3.3814
X5.3507Y-2.9315
X5.468Y-2.7532
X5.4741Y-3.8278
X5.8439Y-3.6013
X6.0Y-4.0
X6.0645Y-2.8336
X6.0645Y-2.8336
X6.1496Y-2.9536
X6.2222Y-2.7482
X6.54Y-4.1511
X6.6Y-3.4
X6.8345Y-3.2244
X6.8706Y-3.7752
X6.9792Y-2.5886
X6.9897Y-3.4981
X7.5Y-2.3
X7.5655Y-3.5333
X7.7075Y-2.6451
X7.7211Y-3.3378
X7.7404Y-2.3671
T2
X3.05Y-4.048
X3.15Y-4.048
X3.25Y-4.048
X3.35Y-4.048
T4
X2.842Y-1.9081
X2.842Y-2.0081
X2.842Y-2.1081
X2.842Y-2.2081
X2.842Y-2.3081
X2.842Y-2.4081
X2.842Y-2.5081
X2.842Y-2.6081
X2.842Y-2.7081
X2.842Y-2.8081
X2.842Y-2.9081
X2.842Y-3.0081
X2.842Y-3.1081
X2.842Y-3.2081
X2.842Y-3.3081
X2.842Y-3.4081
X2.842Y-3.5081
X2.842Y-3.6081
X2.842Y-3.7081
X2.842Y-3.8081
X3.542Y-1.9081
X3.542Y-2.0081
X3.542Y-2.1081
X3.542Y-2.2081
X3.542Y-2.3081
X3.542Y-2.4081
X3.542Y-2.5081
X3.542Y-2.6081
X3.542Y-2.7081
X3.542Y-2.8081
X3.542Y-2.9081
X3.542Y-3.0081
X3.542Y-3.1081
X3.542Y-3.2081
X3.542Y-3.3081
X3.542Y-3.4081
X3.542Y-3.5081
X3.542Y-3.6081
X3.542Y-3.7081
X3.542Y-3.8081
T3
G00X2.8319Y-4.2008
M15
G01X2.8476Y-4.2008
M16
G05
G00X2.95Y-4.2008
M15
G01X2.9657Y-4.2008
M16
G05
G00X3.1075Y-4.2008
M15
G01X3.1232Y-4.2008
M16
G05
G00X3.1508Y-4.3819
M15
G01X3.1665Y-4.3819
M16
G05
T0
M30
