M48
; DRILL file {KiCad 6.0.2+dfsg-1} date vr 25 aug 2023 19:39:18 CEST
; FORMAT={-:-/ absolute / inch / decimal}
; #@! TF.CreationDate,2023-08-25T19:39:18+02:00
; #@! TF.GenerationSoftware,Kicad,Pcbnew,6.0.2+dfsg-1
; #@! TF.FileFunction,NonPlated,1,2,NPTH
FMAT,2
INCH
; #@! TA.AperFunction,NonPlated,NPTH,ComponentDrill
T1C0.0197
; #@! TA.AperFunction,NonPlated,NPTH,ComponentDrill
T2C0.0315
; #@! TA.AperFunction,NonPlated,NPTH,ComponentDrill
T3C0.0591
; #@! TA.AperFunction,NonPlated,NPTH,ComponentDrill
T4C0.0709
; #@! TA.AperFunction,NonPlated,NPTH,ComponentDrill
T5C0.0748
; #@! TA.AperFunction,NonPlated,NPTH,ComponentDrill
T6C0.0866
; #@! TA.AperFunction,NonPlated,NPTH,ComponentDrill
T7C0.1181
; #@! TA.AperFunction,NonPlated,NPTH,ComponentDrill
T8C0.1614
%
G90
G05
T1
X7.6261Y-4.1862
X7.6261Y-4.2157
X7.6261Y-4.2452
X7.6261Y-4.3043
X7.6261Y-4.3338
X7.6261Y-4.3633
X7.6261Y-3.6194
X7.6261Y-3.6489
X7.6261Y-3.6784
X7.6261Y-3.7375
X7.6261Y-3.767
X7.6261Y-3.7966
X7.6278Y-2.8724
X7.6278Y-2.9019
X7.6278Y-2.9314
X7.6278Y-2.9905
X7.6278Y-3.02
X7.6278Y-3.0495
X7.6282Y-2.3114
X7.6282Y-2.3409
X7.6282Y-2.3705
X7.6282Y-2.4295
X7.6282Y-2.4591
X7.6282Y-2.4886
T2
X2.7768Y-4.2913
X3.0524Y-4.2913
T3
X3.0965Y-2.0325
X3.2875Y-2.0325
T4
X3.0847Y-1.9132
X3.2993Y-1.9132
T5
X3.2746Y-4.8483
X3.6372Y-4.6793
X4.0446Y-2.1964
X4.0446Y-2.9509
X4.0446Y-3.7008
X4.0873Y-4.535
X4.4446Y-2.1964
X4.4446Y-2.9509
X4.4446Y-3.7008
X4.4812Y-4.4656
X4.7992Y-2.1964
X4.7992Y-2.9509
X4.7992Y-3.7008
X4.9169Y-4.4305
X5.1992Y-2.1964
X5.1992Y-2.9509
X5.1992Y-3.7008
X5.3169Y-4.4305
X5.5491Y-1.9995
X5.5491Y-2.7541
X5.5491Y-3.5039
X5.9491Y-1.9995
X5.9491Y-2.7541
X5.9491Y-3.5039
X6.3Y-2.1964
X6.3Y-2.9509
X6.3Y-3.7008
X6.7Y-2.1964
X6.7Y-2.9509
X6.7Y-3.7008
X7.0526Y-2.5829
X7.0526Y-3.3329
X7.0526Y-4.0829
X7.4526Y-2.5829
X7.4526Y-3.3329
X7.4526Y-4.0829
X7.8026Y-2.5829
X7.8026Y-3.3329
X7.8026Y-4.0829
X8.2026Y-2.5829
X8.2026Y-3.3329
X8.2026Y-4.0829
T6
X3.7394Y-4.2362
X3.7856Y-2.5711
X6.1287Y-2.4747
X6.1287Y-4.2407
X7.4331Y-3.7077
X7.4416Y-2.952
T7
X3.2777Y-4.7365
X3.462Y-4.5403
X4.0946Y-2.0964
X4.0946Y-2.8509
X4.0946Y-3.6008
X4.1191Y-4.4279
X4.3446Y-1.9964
X4.3446Y-2.7509
X4.3446Y-3.5008
X4.348Y-4.286
X4.8492Y-2.0964
X4.8492Y-2.8509
X4.8492Y-3.6008
X4.9669Y-4.3305
X5.0992Y-1.9964
X5.0992Y-2.7509
X5.0992Y-3.5008
X5.2169Y-4.2305
X5.5991Y-1.8995
X5.5991Y-2.6541
X5.5991Y-3.4039
X5.8491Y-1.7995
X5.8491Y-2.5541
X5.8491Y-3.3039
X6.35Y-2.0964
X6.35Y-2.8509
X6.35Y-3.6008
X6.6Y-1.9964
X6.6Y-2.7509
X6.6Y-3.5008
X7.1026Y-2.4829
X7.1026Y-3.2329
X7.1026Y-3.9829
X7.3526Y-2.3829
X7.3526Y-3.1329
X7.3526Y-3.8829
X7.8526Y-2.4829
X7.8526Y-3.2329
X7.8526Y-3.9829
X8.1026Y-2.3829
X8.1026Y-3.1329
X8.1026Y-3.8829
T8
X3.4559Y-4.7638
X4.2446Y-2.1964
X4.2446Y-2.9509
X4.2446Y-3.7008
X4.2842Y-4.5003
X4.9992Y-2.1964
X4.9992Y-2.9509
X4.9992Y-3.7008
X5.1169Y-4.4305
X5.7491Y-1.9995
X5.7491Y-2.7541
X5.7491Y-3.5039
X6.5Y-2.1964
X6.5Y-2.9509
X6.5Y-3.7008
X7.2526Y-2.5829
X7.2526Y-3.3329
X7.2526Y-4.0829
X8.0026Y-2.5829
X8.0026Y-3.3329
X8.0026Y-4.0829
T0
M30
